<?xml version="1.0" encoding="utf-8"?>
<!-- Generator: Adobe Illustrator 19.1.0, SVG Export Plug-In . SVG Version: 6.00 Build 0)  -->
<svg version="1.1" id="Layer_1" xmlns="http://www.w3.org/2000/svg" xmlns:xlink="http://www.w3.org/1999/xlink" x="0px" y="0px"
	 viewBox="0 0 150 150" enable-background="new 0 0 150 150" xml:space="preserve">
<g id="tag">
	<path id="Background_52_" fill="#079D85" d="M75,0C33.6,0,0,33.6,0,75s33.6,75,75,75s75-33.6,75-75S116.4,0,75,0z"/>
	<g id="Shadow_52_">
		<defs>
			<path id="SVGID_81_" d="M75,0C33.6,0,0,33.6,0,75s33.6,75,75,75s75-33.6,75-75S116.4,0,75,0z"/>
		</defs>
		<clipPath id="SVGID_2_">
			<use xlink:href="#SVGID_81_"  overflow="visible"/>
		</clipPath>
		<polygon clip-path="url(#SVGID_2_)" fill="#117D68" points="84.2,150 36.8,102.6 104.8,36.3 111,34.8 116.1,36.3 150,70.2 
			150,150 		"/>
	</g>
	<g id="Object_52_">
		<g>
			<path fill="#F1DCB3" d="M115.7,35.9c-1.4-1.4-3.4-2-5.2-1.9l-0.1-0.1c0,0-32.1,3.9-42.5,6.5l0,0c-0.1,0-0.1,0.1-0.2,0.1
				c-0.3,0.1-0.5,0.4-0.5,0.4l0,0c-0.1,0.1-0.3,0.2-0.4,0.4L23.5,84.1c-1.5,1.4-1.5,3.8,0,5.3l38.3,37.9c1.5,1.4,3.9,1.4,5.3,0
				l43.3-42.8c0.2-0.2,0.3-0.3,0.4-0.4l0,0c0,0,0-0.1,0.1-0.1l0,0c0.1-0.1,0.1-0.1,0.1-0.2c0.1-0.1,0.1-0.3,0.2-0.4v-0.1
				c0-0.1,0-0.1,0-0.1v-0.1c2-10.5,6.5-42,6.5-42l0,0C117.8,39.2,117.2,37.4,115.7,35.9z M114.7,44.4c-2,2-5.3,2-7.4,0
				c-2-2-2-5.3,0-7.3c2-2,5.3-2,7.4,0C116.8,39.1,116.8,42.4,114.7,44.4z"/>
		</g>
		<g>
			<path fill="#C4B192" d="M67.3,58.6L37.3,88.2l5,5l29.9-29.6L67.3,58.6z M84.8,61.8L47.7,98.5l5,5l37.1-36.7L84.8,61.8z
				 M58.2,108.8l5,5L88,89.3l-5-5L58.2,108.8z"/>
		</g>
	</g>
</g>
</svg>
